<?xml version="1.0" standalone="no"?>
<!DOCTYPE svg PUBLIC "-//W3C//DTD SVG 20010904//EN"
 "http://www.w3.org/TR/2001/REC-SVG-20010904/DTD/svg10.dtd">
<svg version="1.0" xmlns="http://www.w3.org/2000/svg"
 width="40.000000pt" height="40.000000pt" viewBox="0 0 980.000000 982.000000"
 preserveAspectRatio="xMidYMid meet">

<g transform="translate(0.000000,982.000000) scale(0.100000,-0.100000)"
fill="#000000" stroke="none">
<path d="M4405 9795 c-686 -85 -1274 -268 -1849 -577 -425 -228 -716 -449
-1107 -838 -447 -445 -669 -749 -933 -1278 -246 -491 -403 -985 -480 -1512
-46 -314 -46 -1023 0 -1340 104 -714 348 -1377 732 -1984 167 -264 340 -475
646 -784 474 -479 781 -701 1361 -983 341 -165 575 -251 926 -339 379 -95 697
-138 1084 -147 934 -22 1846 223 2655 711 379 229 563 379 955 777 307 312
388 408 562 669 798 1197 1039 2621 678 3996 -127 480 -317 913 -602 1368
-190 303 -366 526 -619 781 -363 366 -604 560 -989 795 -610 372 -1391 629
-2070 680 -245 19 -813 21 -950 5z m795 -370 c934 -47 1954 -473 2693 -1125
725 -641 1243 -1540 1431 -2485 64 -318 86 -546 86 -886 0 -764 -142 -1375
-475 -2039 -239 -477 -513 -851 -898 -1226 -528 -514 -1165 -885 -1881 -1095
-411 -120 -796 -172 -1261 -172 -630 1 -1123 96 -1690 325 -617 250 -1094 571
-1565 1054 -330 338 -586 704 -800 1139 -156 319 -252 581 -335 919 -94 380
-128 669 -129 1071 0 292 8 412 44 662 194 1332 996 2536 2145 3222 655 391
1389 609 2155 641 172 7 249 6 480 -5z"/>
<path d="M2776 7428 c-248 -331 -504 -940 -581 -1385 -38 -219 -43 -681 -9
-1000 36 -348 209 -845 425 -1218 41 -71 200 -325 215 -344 6 -7 307 209 319
229 2 4 -18 40 -47 81 -88 129 -168 267 -254 443 -239 486 -304 792 -291 1376
7 332 30 465 124 750 87 260 196 483 377 770 96 153 96 146 10 213 -63 48
-221 157 -228 157 -3 0 -30 -33 -60 -72z"/>
<path d="M6862 7440 c-87 -58 -199 -148 -205 -164 -2 -6 43 -85 100 -176 194
-308 325 -607 404 -917 65 -257 82 -400 83 -683 0 -332 -32 -559 -120 -833
-87 -269 -267 -639 -419 -857 l-65 -95 36 -30 c87 -71 277 -205 284 -200 5 3
53 74 106 158 262 407 462 906 529 1317 27 171 39 484 26 737 -12 257 -28 373
-71 547 -84 331 -225 670 -406 979 -103 174 -172 267 -197 267 -7 0 -45 -23
-85 -50z"/>
<path d="M3440 6813 c-30 -37 -79 -99 -108 -137 -167 -221 -312 -546 -357
-796 -23 -129 -32 -498 -15 -654 34 -340 193 -699 444 -1006 43 -52 82 -99 87
-105 6 -6 61 42 148 129 l140 139 -66 76 c-124 144 -226 320 -302 516 -67 175
-75 228 -75 500 1 338 18 427 128 660 71 150 121 234 216 360 44 59 80 112 80
119 0 17 -238 266 -253 266 -7 0 -37 -30 -67 -67z"/>
<path d="M6213 6811 c-38 -32 -99 -91 -137 -129 l-69 -71 56 -61 c122 -131
275 -399 331 -576 51 -166 61 -242 61 -479 -1 -315 -26 -434 -141 -670 -64
-132 -149 -263 -237 -366 l-66 -76 140 -139 c84 -84 142 -135 147 -129 5 6 43
52 86 103 316 384 460 784 460 1277 0 209 -13 320 -59 500 -65 254 -165 456
-350 711 -82 112 -128 164 -144 164 -6 0 -41 -27 -78 -59z"/>
<path d="M4675 6656 c-459 -89 -852 -483 -930 -933 -17 -97 -20 -323 -5 -428
30 -213 153 -448 325 -620 151 -151 324 -253 530 -313 l100 -28 5 -985 5 -984
190 0 190 0 5 984 5 983 107 33 c311 94 549 279 709 551 115 196 144 318 143
604 0 195 -1 209 -28 295 -113 369 -374 653 -719 783 -50 18 -122 40 -161 48
-103 21 -384 27 -471 10z m413 -397 c40 -10 114 -40 165 -66 74 -38 110 -65
183 -138 133 -132 199 -257 230 -436 41 -239 -45 -498 -223 -673 -75 -72 -125
-107 -228 -157 -101 -49 -155 -59 -320 -59 -170 0 -220 10 -332 65 -218 107
-359 277 -424 510 -30 107 -30 275 0 388 56 214 202 398 391 496 190 99 361
121 558 70z"/>
</g>
</svg>
